#!OML:ASF E:/inclinewalkrobotboard/Project1/Captureday1/Session1/subject1.ASF
:FULLY-SPECIFIED
:DEGREES
51
root 0 0 0 -0.4081350804204643 -2.004029235969101 -3.8783973551863817
lowerback 16.085614438510973 1.205090361163594 -0.02664816402687864
upperback 0.8469548459103691 1.596703855755726 0.3546836769707916
thorax -8.191552518958495 0.760540086842761 0.023207658100271367
lowerneck -7.461906623690504 -3.3454529200016596 1.0238629151540595
upperneck -3.5988429302613767 -4.413174953836616 2.042406870584089
head 0.060373944532992496 -2.2390563348223083 0.3429238907506753
rclavicle -3.6748050571319964E-16 9.579153237513214E-18
rhumerus 11.769706066496486 0.37954689962239385 -39.74107100997177
rradius 118.12868975511822
rwrist -30.530526460755638
rhand -11.713564161029105 -36.20154111575109
rfingers 7.125019999999962
rthumb 14.371787848011781 -65.62661003104715
lclavicle -4.594127208727278E-16 -5.002642145031482E-16
lhumerus -42.835443992350925 -0.40455977031835744 83.07733053000254
lradius 44.56456170512784
lwrist 2.2040349058337014
lhand -16.15323089915649 -10.418029413455422
lfingers 7.125019999999919
lthumb 10.019399667803565 18.652365394307886
rfemur -2.9811365509646626 1.111336561128952 5.965065683693082
rtibia 8.921456826723048
rfoot -1.6845703121441473 -1.4579611272520694
rtoes 0.8559579161652804
lfemur -6.577672266068999 -3.526541808317001 -12.370761655176008
ltibia 27.531212284631035
lfoot -19.019710618478246 7.755619196980845
ltoes -42.58540890054168
52
root 0 0 0 -0.4062662846132644 -2.005472283813229 -3.8751471532292303
lowerback 16.10164245973472 1.194708067711132 -0.03448259894232897
upperback 0.8402717913254559 1.5815495278433307 0.35546876201353705
thorax -8.208063940132806 0.753218221240969 0.029862052767374525
lowerneck -7.458225157893281 -3.335257487837909 1.0426821595709725
upperneck -3.703315242551451 -4.394619685462744 2.018625602834917
head 0.025229348049318645 -2.2328093005017715 0.335017544204149
rclavicle -3.6685409653236713E-16 9.698400176387752E-18
rhumerus 11.758140090133459 0.3882036956378734 -39.74759618861057
rradius 118.12786135529234
rwrist -30.530136156594505
rhand -11.708810540401256 -36.22049310602378
rfingers 7.125019999999962
rthumb 14.376252502248525 -65.64490342005446
lclavicle -4.574093470800187E-16 -4.989534720900478E-16
lhumerus -42.85527502948811 -0.40440255541158343 83.07986960048524
lradius 44.59307219926636
lwrist 2.1945221828946586
lhand -16.13098982563305 -10.487833189681373
lfingers 7.125019999999919
lthumb 10.040309954529633 18.585235636582624
rfemur -2.9658410728970708 1.1051992783726143 5.933055407416312
rtibia 8.875148467469776
rfoot -1.6750254852596242 -1.4500993710754475
rtoes 0.8510954872912322
lfemur -6.572728060601156 -3.5297255883975063 -12.361989079820038
ltibia 27.521695012169523
lfoot -19.036418041842936 7.769974348357893
ltoes -42.63268043242484
53
root 0 0 0 -0.4048297341857775 -2.00694555066733 -3.871851425914552
lowerback 16.123755297852004 1.1842953591153058 -0.04289830973612219
upperback 0.8332686863683921 1.5663100173336897 0.3558387129596313
thorax -8.228262458894157 0.7458234245069829 0.03625162122289294
lowerneck -7.455096984707385 -3.3258372833933754 1.062278790879645
upperneck -3.8274408312227557 -4.376579267295173 1.9939134731330534
head -0.01626686803024402 -2.2271012227183933 0.3267999733774779
rclavicle -3.665995860222069E-16 9.95275454613587E-18
rhumerus 11.754970695654961 0.397330716429261 -39.747245283333896
rradius 118.13876164547304
rwrist -30.53491626578067
rhand -11.70441205739 -36.24209047507832
rfingers 7.125019999999962
rthumb 14.380389329746421 -65.66597648088731
lclavicle -4.556375287252925E-16 -4.97534571201009E-16
lhumerus -42.87648589138024 -0.4045001558447434 83.08262103974224
lradius 44.624014396607436
lwrist 2.184541104813968
lhand -16.10718762338754 -10.562792041661213
lfingers 7.12501999999992
lthumb 10.062704245305184 18.513211910767247
rfemur -2.9504743331783807 1.0991116872901265 5.90112015993766
rtibia 8.828694350911258
rfoot -1.665568456184665 -1.4422052394477614
rtoes 0.8462815223695077
lfemur -6.569265497229755 -3.5319036928573504 -12.355859718899449
ltibia 27.515392748389264
lfoot -19.04787395297307 7.7797871876212135
ltoes -42.665517093820895
54
root 0 0 0 -0.4069113395209778 -2.0085078267602188 -3.866736989581124
lowerback 16.159903739094183 1.174186504149511 -0.05280987892216771
upperback 0.8254080386868824 1.5515358759699158 0.3556275064694959
thorax -8.256653524013092 0.7385023874843439 0.04246290593646129
lowerneck -7.4615276538471145 -3.3199131109097775 1.0799258474834526
upperneck -3.986526578950002 -4.3619115376159945 1.9677611834349826
head -0.06708303875284738 -2.2235135012226843 0.31818738271501523
rclavicle -3.660552875082546E-16 9.109940072828452E-18
rhumerus 11.749800715328483 0.37706350299341373 -39.757856940043055
rradius 118.10139846865573
rwrist -30.516085964690284
rhand -11.712820215764777 -36.197961782534975
rfingers 7.125019999999962
rthumb 14.372715420582832 -65.62310585847175
lclavicle -4.55721471588785E-16 -4.960824795485991E-16
lhumerus -42.89169095602302 -0.40476824474909334 83.08480565982545
lradius 44.64613381429676
lwrist 2.1769305006260797
lhand -16.08972075609571 -10.618245114801427
lfingers 7.125019999999921
lthumb 10.079087343329462 18.459826647987953
rfemur -2.9311304569955237 1.0917019315393537 5.8621359147949335
rtibia 8.77205966471342
rfoot -1.653100222308316 -1.4321569874395614
rtoes 0.8412244970205558
lfemur -6.571415759427067 -3.53007813551043 -12.361486367040637
ltibia 27.52152601719746
lfoot -19.037673033556146 7.7709564908795326
ltoes -42.63697442089474
55
root 0 0 0 -0.40644280429877244 -2.0102184380166364 -3.8638307816136948
lowerback 16.18588087847903 1.1645230369524882 -0.06085751925238592
upperback 0.8177466341237067 1.5374732483041893 0.3555853277557711
thorax -8.279785167356328 0.7315925136340494 0.04787080084683404
lowerneck -7.461354670463149 -3.31199355937053 1.09868117904545
upperneck -4.122663240059218 -4.345718344335167 1.943521300963149
head -0.11191766005986103 -2.218804095331108 0.3101300283345125
rclavicle -3.6791352342764703E-16 9.61441496544845E-18
rhumerus 11.752954927508629 0.38644481639311223 -39.75153579365008
rradius 118.12248125576187
rwrist -30.524783888780703
rhand -11.708390284715803 -36.2225029937552
rfingers 7.125019999999962
rthumb 14.376616076104021 -65.64730689808763
lclavicle -4.526477527650486E-16 -4.955632993588842E-16
lhumerus -42.91221421187926 -0.405209241934983 83.08641680187506
lradius 44.676573196533745
lwrist 2.1691844006179513
lhand -16.068008487675854 -10.686057047235257
lfingers 7.125019999999921
lthumb 10.099431518467814 18.394455790704967
rfemur -2.9280863488352633 1.0902519849228658 5.85500370534724
rtibia 8.763004643457563
rfoot -1.6513312847488035 -1.43063392007585
rtoes 0.8399181652717311
lfemur -6.571131129085246 -3.5300404012631823 -12.361055719960229
ltibia 27.521617827256964
lfoot -19.038023767024107 7.77104531357535
ltoes -42.63867616600881
56
root 0 0 0 -0.40586826914758667 -2.011250339367889 -3.8634047910509715
lowerback 16.208188008123784 1.1597763060811401 -0.06549247019208715
upperback 0.811954682147764 1.5304190828260886 0.35447850791248314
thorax -8.29833184434017 0.728071540220556 0.04946960503071407
lowerneck -7.460203696947745 -3.3087760501793455 1.1109281429622597
upperneck -4.229043528232523 -4.338019969359237 1.9298496345449692
head -0.14743312347865523 -2.2170956831952457 0.30551321261822934
rclavicle -3.6823356234450464E-16 1.0057710940810877E-17
rhumerus 11.773400147442207 0.3952047851616971 -39.73249702261144
rradius 118.16385556377885
rwrist -30.542613725878933
rhand -11.705846613968426 -36.247142757287236
rfingers 7.125019999999962
rthumb 14.379006774431067 -65.67123052587729
lclavicle -4.517002821102125E-16 -4.945279698899408E-16
lhumerus -42.92871121470359 -0.4057902647475966 83.08844777992485
lradius 44.70160727529264
lwrist 2.162160232570161
lhand -16.04954881923291 -10.744136809056949
lfingers 7.125019999999922
lthumb 10.116651330009562 18.338928717209576
rfemur -2.928087587419812 1.090434759001229 5.855675153054271
rtibia 8.763248503101684
rfoot -1.651664017542867 -1.4307184991448942
rtoes 0.8401726961931111
lfemur -6.570608299629866 -3.5303912009882152 -12.359057178392616
ltibia 27.52076477490856
lfoot -19.0413541162447 7.774056151231662
ltoes -42.649408028850836
57
root 0 0 0 -0.40469577091934306 -2.011740301876841 -3.864795667259914
lowerback 16.22448064848842 1.1582223570434687 -0.06760184075423536
upperback 0.8076638804104107 1.527943673540423 0.3528573377278086
thorax -8.31179390467343 0.7267918023417175 0.04872207690619579
lowerneck -7.4571101355213525 -3.3080279899879033 1.1188124104083386
upperneck -4.305862608384491 -4.335356255350305 1.9236316403669842
head -0.17365498344007957 -2.216966321243251 0.30332034207261316
rclavicle -3.6869105649496654E-16 1.0751049869656449E-17
rhumerus 11.800928971803227 0.4079233763498564 -39.70665685039771
rradius 118.22031183040701
rwrist -30.56761275024362
rhand -11.702119199681066 -36.28152990158016
rfingers 7.125019999999962
rthumb 14.382527968934886 -65.70473649419444
lclavicle -4.505626422596639E-16 -4.932224685546215E-16
lhumerus -42.94644103034362 -0.4058612979508086 83.0910888326495
lradius 44.7276118147108
lwrist 2.153583180679746
lhand -16.029437682146337 -10.807528923818753
lfingers 7.125019999999922
lthumb 10.135579549982753 18.278253111604297
rfemur -2.9257414387191742 1.0897424058461183 5.85159861714852
rtibia 8.756239150310753
rfoot -1.6507772756301855 -1.4296321122943705
rtoes 0.8396077967791529
lfemur -6.568991151328787 -3.531623178788388 -12.354522077838656
ltibia 27.517382998434282
lfoot -19.049230792753946 7.781007459736724
ltoes -42.673174673851804
58
root 0 0 0 -0.40581218664102847 -2.011517327598062 -3.866927029531158
lowerback 16.239093335423796 1.161590069044934 -0.06690093095405414
upperback 0.8051003959370283 1.532614942139334 0.3504437696123375
thorax -8.321816058485107 0.7288900775859135 0.04477306577886819
lowerneck -7.460552940478652 -3.3134788566386733 1.1173869216244725
upperneck -4.35161985001411 -4.342756810775518 1.9277510297440044
head -0.18817540076811579 -2.220625246302984 0.30457946028616006
rclavicle -3.6866460612805317E-16 1.0481290563013962E-17
rhumerus 11.826749360795716 0.3944825276205126 -39.69069224034098
rradius 118.23342593636073
rwrist -30.571765809619077
rhand -11.709909849623886 -36.25675653256897
rfingers 7.125019999999962
rthumb 14.375461443579 -65.68057887608137
lclavicle -4.50981159498322E-16 -4.918218729710914E-16
lhumerus -42.95595139669777 -0.4052230890316234 83.09335963058318
lradius 44.74015844738088
lwrist 2.147089192798637
lhand -16.01783045358488 -10.844423817161921
lfingers 7.125019999999923
lthumb 10.146604809250091 18.242817675051498
rfemur -2.918485701423619 1.0873333578889717 5.838414296649811
rtibia 8.735878990745038
rfoot -1.6464515432103544 -1.4259537545285295
rtoes 0.8382996194377421
lfemur -6.570062668796957 -3.531029600641253 -12.35575262111633
ltibia 27.51980063121846
lfoot -19.046767888660618 7.779129676643379
ltoes -42.66726830512181
